<?xml version="1.0" encoding="UTF-8"?>
<svg version="1.1" xmlns="http://www.w3.org/2000/svg" width="300" height="300">
<path d="M0 0 C2.73632581 -0.00434184 5.47099267 -0.0406675 8.20703125 -0.07861328 C23.70769323 -0.17828673 38.52524953 2.14359255 53.14453125 7.43310547 C53.95204834 7.7212915 54.75956543 8.00947754 55.59155273 8.30639648 C73.43944801 14.95756238 89.2019039 24.60152834 103.26953125 37.37060547 C104.08421875 38.08216797 104.89890625 38.79373047 105.73828125 39.52685547 C111.02077233 44.17290184 115.88588635 48.86619362 120.26953125 54.37060547 C121.09066406 55.39283203 121.91179687 56.41505859 122.7578125 57.46826172 C133.42191516 71.13954933 141.20329607 86.21838099 146.76953125 102.62060547 C147.08365967 103.54091553 147.39778809 104.46122559 147.72143555 105.40942383 C152.20750652 119.4399086 153.77636391 133.29680224 153.66064453 147.95458984 C153.64453611 150.36987728 153.66061983 152.78349245 153.6796875 155.19873047 C153.70189444 170.02731878 151.57648119 184.03993979 146.76953125 198.12060547 C146.42696289 199.12865234 146.08439453 200.13669922 145.73144531 201.17529297 C136.73271433 226.61723212 120.61147252 250.57574447 99.26953125 267.37060547 C98.25117188 268.18787109 97.2328125 269.00513672 96.18359375 269.84716797 C82.51255436 280.5199042 67.42617752 288.30286971 51.01953125 293.87060547 C50.09922119 294.18473389 49.17891113 294.4988623 48.23071289 294.82250977 C34.20022812 299.30858074 20.34333448 300.87743813 5.68554688 300.76171875 C3.27025944 300.74561033 0.85664427 300.76169405 -1.55859375 300.78076172 C-16.38718206 300.80296866 -30.39980307 298.67755541 -44.48046875 293.87060547 C-45.48851563 293.52803711 -46.4965625 293.18546875 -47.53515625 292.83251953 C-72.98870747 283.8296814 -96.91771755 267.70845163 -113.73046875 246.37060547 C-114.53613281 245.37544922 -115.34179688 244.38029297 -116.171875 243.35498047 C-129.40022596 226.51889743 -138.56925403 207.11502619 -143.73046875 186.37060547 C-144.0049585 185.29391602 -144.27944824 184.21722656 -144.56225586 183.10791016 C-146.84641884 173.14335906 -147.22512444 163.52646255 -147.17651367 153.33837891 C-147.16802156 150.63740184 -147.19685448 147.93856208 -147.22851562 145.23779297 C-147.29243442 129.61538162 -144.84617201 114.74975991 -139.41796875 100.05810547 C-139.11874512 99.23036621 -138.81952148 98.40262695 -138.51123047 97.54980469 C-124.85311299 60.67789048 -95.99815522 29.21086662 -60.22265625 12.75732422 C-53.10783268 9.78385044 -45.85318241 7.37311088 -38.48046875 5.12060547 C-37.67722168 4.8742334 -36.87397461 4.62786133 -36.04638672 4.37402344 C-33.61797671 3.65733788 -31.18343671 2.99796176 -28.73046875 2.37060547 C-27.95960937 2.17192871 -27.18875 1.97325195 -26.39453125 1.76855469 C-17.69550137 -0.13861899 -8.8622379 -0.00156687 0 0 Z " fill="#1FC4BE" transform="translate(146.73046875,-0.37060546875)"/>
<path d="M0 0 C2.27210188 1.67756813 2.92723825 2.54179763 3.37473011 5.35978699 C3.37456237 6.29704117 3.37439463 7.23429535 3.3742218 8.19995117 C3.38123611 9.2767514 3.38825043 10.35355164 3.39547729 11.46298218 C3.38783356 12.64437775 3.38018982 13.82577332 3.37231445 15.04296875 C3.37596512 16.28704498 3.37961578 17.53112122 3.38337708 18.81289673 C3.39010146 22.22623375 3.38335831 25.63902713 3.37004495 29.05231094 C3.35873601 32.62235817 3.36283752 36.19239118 3.36479187 39.76245117 C3.36567503 45.75802294 3.35459005 51.75348169 3.33618164 57.74902344 C3.31501364 64.68310344 3.31150399 71.61701785 3.3177436 78.55112362 C3.3234362 85.21840033 3.31779283 91.88561867 3.30657005 98.55288696 C3.30192268 101.39174478 3.30105081 104.2305669 3.3031559 107.06942749 C3.30538741 111.03202493 3.29093728 114.99446452 3.2746582 118.95703125 C3.27713562 120.13842682 3.27961304 121.31982239 3.28216553 122.53701782 C3.27508072 123.61381805 3.26799591 124.69061829 3.26069641 125.80004883 C3.25761711 127.2059301 3.25761711 127.2059301 3.25447559 128.64021301 C3 131 3 131 1 134 C-1.27734375 134.3984375 -1.27734375 134.3984375 -3.9375 134.375 C-4.81277344 134.38273438 -5.68804687 134.39046875 -6.58984375 134.3984375 C-9.4856709 133.91971081 -10.19529178 133.26271221 -12 131 C-12.31009814 127.91452883 -12.43742342 125.02694339 -12.43237305 121.9387207 C-12.44766052 120.54817978 -12.44766052 120.54817978 -12.46325684 119.12954712 C-12.49348131 116.06156444 -12.50266726 112.99389349 -12.51171875 109.92578125 C-12.52855841 107.80013483 -12.54670768 105.67449842 -12.56611633 103.5488739 C-12.61369973 97.9511528 -12.64345518 92.35347224 -12.66955566 86.75561523 C-12.69931911 81.04467764 -12.74586388 75.33387987 -12.79101562 69.62304688 C-12.87714364 58.41543759 -12.94444668 47.2077996 -13 36 C-13.46207855 36.79523575 -13.9241571 37.5904715 -14.40023804 38.4098053 C-17.46456128 43.67492807 -20.52717241 48.93647229 -23.7265625 54.12109375 C-24.35933105 55.14799316 -24.99209961 56.17489258 -25.64404297 57.23291016 C-26.29775879 58.2904248 -26.95147461 59.34793945 -27.625 60.4375 C-28.32578862 61.57334016 -29.02647031 62.70924629 -29.72705078 63.84521484 C-31.81606586 67.2313613 -33.90793028 70.61573996 -36 74 C-36.60779297 74.98403809 -37.21558594 75.96807617 -37.84179688 76.98193359 C-43.59438133 86.29510251 -49.35928278 95.60030217 -55.17529297 104.87402344 C-57.6141196 108.7670141 -60.03194579 112.67228585 -62.4375 116.5859375 C-63.02789062 117.545 -63.61828125 118.5040625 -64.2265625 119.4921875 C-65.39035123 121.38398504 -66.55188671 123.27717096 -67.7109375 125.171875 C-68.50371094 126.45964844 -68.50371094 126.45964844 -69.3125 127.7734375 C-69.78300781 128.54091309 -70.25351563 129.30838867 -70.73828125 130.09912109 C-72 132 -72 132 -74 134 C-76.27734375 134.37109375 -76.27734375 134.37109375 -78.9375 134.4375 C-79.81277344 134.47746094 -80.68804687 134.51742187 -81.58984375 134.55859375 C-84 134 -84 134 -85.62361145 132.02839661 C-87.48497583 127.93293274 -87.43995385 124.43643122 -87.43237305 119.98706055 C-87.44766052 118.63997261 -87.44766052 118.63997261 -87.46325684 117.26567078 C-87.49338031 114.30595658 -87.50265186 111.34656609 -87.51171875 108.38671875 C-87.5285659 106.33119125 -87.54671619 104.27567406 -87.56611633 102.22016907 C-87.61361843 96.81646951 -87.64342655 91.41281171 -87.66955566 86.00897217 C-87.69936002 80.49222567 -87.74589082 74.97562307 -87.79101562 69.45898438 C-87.8770512 58.63939818 -87.94439547 47.81978238 -88 37 C-88.4138092 37.69186401 -88.82761841 38.38372803 -89.25396729 39.09655762 C-104.40202105 64.41268518 -104.40202105 64.41268518 -110.75 74.5 C-111.36214355 75.47718994 -111.97428711 76.45437988 -112.60498047 77.46118164 C-116.80453669 84.14836959 -121.05950893 90.7985916 -125.41308594 97.38671875 C-127.55113238 100.64599852 -129.54609077 103.9354688 -131.41796875 107.35546875 C-134.14002052 112.32661049 -137.13998179 117.09842016 -140.1875 121.875 C-140.72052734 122.71546875 -141.25355469 123.5559375 -141.80273438 124.421875 C-143.84220844 127.63372598 -145.8894692 130.8342038 -148 134 C-150.27734375 134.3984375 -150.27734375 134.3984375 -152.9375 134.375 C-153.81277344 134.38273438 -154.68804687 134.39046875 -155.58984375 134.3984375 C-158 134 -158 134 -159.81640625 132.9140625 C-161.76009535 129.7708029 -161.47431819 127.63520422 -161 124 C-159.64049505 121.01739719 -157.84633684 118.38904374 -156 115.6875 C-154.90146582 114.01835981 -153.80524236 112.34769728 -152.7109375 110.67578125 C-152.11635742 109.77424316 -151.52177734 108.87270508 -150.90917969 107.94384766 C-147.37170648 102.48926301 -144.010066 96.92491308 -140.625 91.375 C-136.60979083 84.79727422 -132.55164024 78.27970641 -128.2421875 71.890625 C-126.7384279 69.60188398 -125.43879012 67.2475503 -124.1875 64.8125 C-121.6162103 60.00789941 -118.77503249 55.44462792 -115.80053711 50.88037109 C-112.37419061 45.6124071 -109.05168964 40.28435784 -105.75 34.9375 C-105.20609619 34.05803711 -104.66219238 33.17857422 -104.10180664 32.27246094 C-101.18464238 27.55150187 -98.2788546 22.82378871 -95.3828125 18.08984375 C-94.79532227 17.13279541 -94.20783203 16.17574707 -93.60253906 15.18969727 C-92.47335294 13.34990264 -91.34755372 11.50802384 -90.22558594 9.66381836 C-89.46036621 8.41870483 -89.46036621 8.41870483 -88.6796875 7.1484375 C-88.23351074 6.41802246 -87.78733398 5.68760742 -87.32763672 4.93505859 C-85.99993575 2.99990635 -84.83119656 1.47096117 -83 0 C-76.09707759 -0.76699138 -76.09707759 -0.76699138 -72.90692139 1.46331787 C-70.08815268 5.21298487 -70.42746514 8.50490304 -70.45410156 13.08300781 C-70.44376389 14.00042755 -70.43342621 14.91784729 -70.42277527 15.86306763 C-70.39329458 18.8932648 -70.39184697 21.92279555 -70.390625 24.953125 C-70.37564693 27.0549243 -70.35892058 29.15671181 -70.34051514 31.25848389 C-70.29678766 36.78882379 -70.27683048 42.31900491 -70.26177979 47.8494873 C-70.24222823 53.49350393 -70.20025601 59.13734858 -70.16015625 64.78125 C-70.08479559 75.8541137 -70.03453951 86.92693901 -70 98 C-69.65906815 97.43112564 -69.31813629 96.86225128 -68.96687317 96.27613831 C-67.40139147 93.66438164 -65.83546445 91.05289223 -64.26953125 88.44140625 C-63.73332153 87.54667603 -63.19711182 86.6519458 -62.64465332 85.73010254 C-57.45007363 77.06850289 -52.20314201 68.44542583 -46.765625 59.93359375 C-42.7970578 53.70524302 -38.92490596 47.4195671 -35.0625 41.125 C-33.04882812 37.84765625 -33.04882812 37.84765625 -31.03515625 34.5703125 C-30.37306152 33.49209229 -29.7109668 32.41387207 -29.02880859 31.30297852 C-26.28746256 26.83996161 -23.54343892 22.37860335 -20.79663086 17.91894531 C-19.72630879 16.18001738 -18.65753537 14.44013239 -17.59204102 12.69824219 C-16.48773782 10.89670875 -15.37122971 9.10352798 -14.25 7.3125 C-13.89035156 6.72017578 -13.53070313 6.12785156 -13.16015625 5.51757812 C-9.49156072 -0.30317182 -6.73427546 -1.86267194 0 0 Z " fill="#F8FEFD" transform="translate(213,81)"/>
<path d="M0 0 C0.66 0 1.32 0 2 0 C2.99788644 4.14152373 3.12087225 8.01496495 3.11352539 12.26879883 C3.11367142 12.98153961 3.11381744 13.6942804 3.1139679 14.42861938 C3.11327432 16.7714549 3.105508 19.11420972 3.09765625 21.45703125 C3.0957901 23.08656267 3.09436713 24.71609465 3.09336853 26.34562683 C3.08955888 30.62488364 3.07974188 34.90410626 3.06866455 39.18334961 C3.05841702 43.55386899 3.05386376 47.92439393 3.04882812 52.29492188 C3.03811818 60.8632969 3.02106045 69.43164419 3 78 C3.66 78 4.32 78 5 78 C5 79.65 5 81.3 5 83 C5.99 83.33 6.98 83.66 8 84 C8.33 82.68 8.66 81.36 9 80 C9.66 80 10.32 80 11 80 C9.56786488 83.93657242 7.69667846 87.28931356 5.4375 90.8125 C4.81746094 91.78832031 4.19742188 92.76414062 3.55859375 93.76953125 C2.78708984 94.87361328 2.78708984 94.87361328 2 96 C1.67 96 1.34 96 1 96 C0.505 48.48 0.505 48.48 0 0 Z " fill="#3CC0B7" transform="translate(141,84)"/>
<path d="M0 0 C0.66 0 1.32 0 2 0 C3.17614912 4.67567809 3.17260036 9.22420384 3.20532227 14.01293945 C3.21522186 14.91099808 3.22512146 15.8090567 3.23532104 16.73432922 C3.26683363 19.69395335 3.29165292 22.65359352 3.31640625 25.61328125 C3.33698462 27.66880198 3.35798133 29.72431857 3.37937927 31.77983093 C3.43450871 37.18352901 3.4839582 42.5872647 3.53222656 47.99102783 C3.58250829 53.50772438 3.63815951 59.02436648 3.69335938 64.54101562 C3.80082928 75.36063053 3.90229899 86.18029278 4 97 C7.3 97 10.6 97 14 97 C14 96.01 14 95.02 14 94 C15.98 93.505 15.98 93.505 18 93 C15.125 97.875 15.125 97.875 14 99 C11.8203125 99.2734375 11.8203125 99.2734375 9.125 99.375 C8.24070313 99.42398438 7.35640625 99.47296875 6.4453125 99.5234375 C4 99 4 99 2.37419128 97.04206848 C0.49914709 92.89125418 0.56011668 89.30931295 0.56762695 84.8034668 C0.5574353 83.88590103 0.54724365 82.96833527 0.53674316 82.02296448 C0.50661458 78.99832044 0.49734733 75.97399313 0.48828125 72.94921875 C0.47143449 70.84885099 0.45328425 68.74849331 0.43388367 66.64814758 C0.38637743 61.12607982 0.35657197 55.60405293 0.33044434 50.08184814 C0.30064208 44.44445726 0.25411056 38.80720724 0.20898438 33.16992188 C0.12294407 22.11335492 0.0556019 11.05675899 0 0 Z " fill="#C7F3ED" transform="translate(125,116)"/>
<path d="M0 0 C0.33 0 0.66 0 1 0 C1 31.68 1 63.36 1 96 C0.67 96 0.34 96 0 96 C-0.33 66.96 -0.66 37.92 -1 8 C-1.66 8 -2.32 8 -3 8 C-3.33 9.32 -3.66 10.64 -4 12 C-4.66 12 -5.32 12 -6 12 C-6 14.64 -6 17.28 -6 20 C-6.99 20.33 -7.98 20.66 -9 21 C-9.66 21.99 -10.32 22.98 -11 24 C-11.66 24 -12.32 24 -13 24 C-12.67 25.32 -12.34 26.64 -12 28 C-13.98 28.99 -15.96 29.98 -18 31 C-16.27717212 25.9725666 -13.47693468 21.67356294 -10.6875 17.1875 C-10.21376953 16.41857422 -9.74003906 15.64964844 -9.25195312 14.85742188 C-8.30690571 13.32543667 -7.35886626 11.7952928 -6.40771484 10.26708984 C-5.45327143 8.7299824 -4.50588804 7.18847281 -3.56494141 5.64306641 C-3.11683105 4.9113623 -2.6687207 4.1796582 -2.20703125 3.42578125 C-1.80589111 2.76618408 -1.40475098 2.10658691 -0.99145508 1.42700195 C-0.6642749 0.95609131 -0.33709473 0.48518066 0 0 Z " fill="#3FB4B3" transform="translate(200,116)"/>
<path d="M0 0 C0.33 0 0.66 0 1 0 C1.01030746 1.14370056 1.02061493 2.28740112 1.03123474 3.46575928 C1.1289324 14.23678483 1.23166311 25.00775215 1.33933926 35.77868271 C1.39453615 41.31630212 1.44795106 46.85392684 1.49731445 52.39160156 C1.54500559 57.7343634 1.59735025 63.07706112 1.65294075 68.4197464 C1.67334275 70.45949968 1.69205939 72.49927052 1.70907402 74.53905487 C1.73316563 77.39296322 1.76321385 80.24675068 1.79467773 83.10058594 C1.8004332 83.94647278 1.80618866 84.79235962 1.81211853 85.66387939 C1.85816346 89.33098855 2.10498317 92.41993268 3 96 C6.63 96 10.26 96 14 96 C13.67 96.99 13.34 97.98 13 99 C11.39667209 99.08121924 9.79215974 99.13929134 8.1875 99.1875 C6.84751953 99.23970703 6.84751953 99.23970703 5.48046875 99.29296875 C2.48121265 98.9387259 1.84034543 98.33087593 0 96 C-0.36914349 94.13158894 -0.36914349 94.13158894 -0.36076355 91.9947052 C-0.36488754 91.18282242 -0.36901154 90.37093964 -0.3732605 89.53445435 C-0.36247467 88.64756927 -0.35168884 87.7606842 -0.34057617 86.84692383 C-0.34101425 85.91014297 -0.34145233 84.97336212 -0.34190369 84.00819397 C-0.33981139 80.90759538 -0.31645931 77.80753554 -0.29296875 74.70703125 C-0.28737437 72.55897823 -0.28310353 70.41092138 -0.28010559 68.26286316 C-0.26864441 62.60581924 -0.23916613 56.94900594 -0.20599365 51.29205322 C-0.17532029 45.52090576 -0.1616061 39.74972108 -0.14648438 33.97851562 C-0.11429777 22.65224236 -0.06308592 11.32614035 0 0 Z " fill="#C1FEFE" transform="translate(201,116)"/>
<path d="M0 0 C0.33 0 0.66 0 1 0 C1 31.35 1 62.7 1 95 C0.67 95 0.34 95 0 95 C-0.33 66.29 -0.66 37.58 -1 8 C-1.99 8.33 -2.98 8.66 -4 9 C-4.33 9.99 -4.66 10.98 -5 12 C-5.66 11.67 -6.32 11.34 -7 11 C-5.85845641 9.16399255 -4.71165684 7.33125195 -3.5625 5.5 C-2.92441406 4.4790625 -2.28632812 3.458125 -1.62890625 2.40625 C-0.82259766 1.21515625 -0.82259766 1.21515625 0 0 Z " fill="#34BDAC" transform="translate(125,117)"/>
<path d="M0 0 C1.125 1.625 1.125 1.625 2 4 C1.16826425 7.65963731 -0.3712835 10.71804484 -2.125 14 C-3.92346539 17.46371112 -4.39500804 20.04991959 -4 24 C-4.66 24.33 -5.32 24.66 -6 25 C-5.773125 25.556875 -5.54625 26.11375 -5.3125 26.6875 C-5 29 -5 29 -6.4375 31.125 C-8.7260107 35.33585969 -8.24621711 39.30363654 -8 44 C-9.32 43.67 -10.64 43.34 -12 43 C-10.10777879 28.4929707 -6.57452478 13.14904955 0 0 Z " fill="#2BC9AA" transform="translate(12,88)"/>
<path d="M0 0 C1.0448029 3.13440869 1.15317663 4.02096037 0 7 C-0.99 7.66 -1.98 8.32 -3 9 C-3.73343428 12.06556598 -3.73343428 12.06556598 -4 15 C-4.99 15.33 -5.98 15.66 -7 16 C-7.33 16.66 -7.66 17.32 -8 18 C-8.66 18 -9.32 18 -10 18 C-10.2475 19.093125 -10.495 20.18625 -10.75 21.3125 C-12.02002851 25.05908409 -12.65756352 26.10595266 -16 28 C-16.66 27.67 -17.32 27.34 -18 27 C-15.9453505 23.62016236 -13.8798915 20.24705603 -11.8125 16.875 C-10.9452832 15.44800781 -10.9452832 15.44800781 -10.06054688 13.9921875 C-6.99440005 9.00320284 -3.9049786 4.36828114 0 0 Z " fill="#3CC6B1" transform="translate(84,185)"/>
<path d="M0 0 C0.66 0.99 1.32 1.98 2 3 C1.67 3.66 1.34 4.32 1 5 C0.34 5 -0.32 5 -1 5 C-1.33 6.32 -1.66 7.64 -2 9 C-2.66 9 -3.32 9 -4 9 C-4 11.64 -4 14.28 -4 17 C-4.99 17.33 -5.98 17.66 -7 18 C-7.66 18.99 -8.32 19.98 -9 21 C-9.66 21 -10.32 21 -11 21 C-10.67 22.32 -10.34 23.64 -10 25 C-11.98 25.99 -13.96 26.98 -16 28 C-14.26321585 22.90269268 -11.39109376 18.54345178 -8.5625 14 C-7.58452525 12.41673471 -6.60665772 10.83340319 -5.62890625 9.25 C-4.94465576 8.14591797 -4.94465576 8.14591797 -4.24658203 7.01953125 C-2.8099718 4.6921439 -1.39810231 2.35070761 0 0 Z " fill="#3DBEC0" transform="translate(198,119)"/>
<path d="M0 0 C7.52364966 0.83596107 11.13585643 3.34196772 16 9 C16.99196826 10.00796775 17.98946665 11.01064549 19 12 C18.01 12.33 17.02 12.66 16 13 C15.67 12.34 15.34 11.68 15 11 C10.58270925 9.11970581 10.58270925 9.11970581 6 10 C6 9.34 6 8.68 6 8 C5.34 8 4.68 8 4 8 C4 6.02 4 4.04 4 2 C2.68 2 1.36 2 0 2 C0 1.34 0 0.68 0 0 Z " fill="#1CB8C4" transform="translate(236,30)"/>
<path d="M0 0 C1.54296875 1.42578125 1.54296875 1.42578125 3.1875 3.3125 C3.73792969 3.92738281 4.28835938 4.54226562 4.85546875 5.17578125 C5.42201172 6.07876953 5.42201172 6.07876953 6 7 C5.67 7.99 5.34 8.98 5 10 C2.69 10 0.38 10 -2 10 C-2 9.34 -2 8.68 -2 8 C-2.66 7.67 -3.32 7.34 -4 7 C-4 5.02 -4 3.04 -4 1 C-2 0 -2 0 0 0 Z " fill="#19B8C7" transform="translate(260,46)"/>
<path d="M0 0 C1 2 1 2 0.1875 4.5 C-1 7 -1 7 -3 9 C-3.70710678 10.64991582 -4.37943989 12.31562256 -5 14 C-5.66 14 -6.32 14 -7 14 C-7.268125 14.886875 -7.53625 15.77375 -7.8125 16.6875 C-10.46153846 24.07692308 -10.46153846 24.07692308 -14.1875 26.3125 C-15.0846875 26.6528125 -15.0846875 26.6528125 -16 27 C-14.52038829 22.92351875 -12.54139577 19.42689089 -10.25 15.75 C-9.89873047 15.18514893 -9.54746094 14.62029785 -9.18554688 14.03833008 C-6.22028846 9.29378207 -3.15277856 4.62168676 0 0 Z " fill="#3DBEBB" transform="translate(159,183)"/>
<path d="M0 0 C0.99 0 1.98 0 3 0 C3.99 2.97 4.98 5.94 6 9 C2.16380575 9.95904856 0.67568464 9.91892116 -3 9 C-2.25 2.25 -2.25 2.25 0 0 Z " fill="#13BAC7" transform="translate(290,102)"/>
<path d="M0 0 C0.66 0.33 1.32 0.66 2 1 C1.6390625 1.49628906 1.278125 1.99257812 0.90625 2.50390625 C-2.24837996 7.12193399 -3.80930352 10.21926054 -3 16 C-0.50494038 18.49505962 0.67328888 18.35948376 4.125 18.625 C5.03507812 18.69976562 5.94515625 18.77453125 6.8828125 18.8515625 C7.58148438 18.90054688 8.28015625 18.94953125 9 19 C9.33 18.34 9.66 17.68 10 17 C9.67 18.32 9.34 19.64 9 21 C7.22992286 21.08114106 5.45877902 21.13925505 3.6875 21.1875 C2.70136719 21.22230469 1.71523438 21.25710937 0.69921875 21.29296875 C-2 21 -2 21 -3.83984375 19.80078125 C-5.37886728 17.41192655 -5.3340209 15.82310223 -5.25 13 C-5.23453125 12.13375 -5.2190625 11.2675 -5.203125 10.375 C-5 8 -5 8 -4 5 C-3.34 5 -2.68 5 -2 5 C-1.34 3.35 -0.68 1.7 0 0 Z " fill="#42C4AE" transform="translate(56,196)"/>
<path d="M0 0 C1.3274855 3.98245651 -0.00092171 6.44789543 -1.4375 10.1875 C-1.68048828 10.84169922 -1.92347656 11.49589844 -2.17382812 12.16992188 C-2.7743293 13.78303286 -3.38609203 15.3919435 -4 17 C-4.66 17 -5.32 17 -6 17 C-6 12.71 -6 8.42 -6 4 C-4.68 4 -3.36 4 -2 4 C-1.34 2.68 -0.68 1.36 0 0 Z " fill="#15B9CE" transform="translate(294,190)"/>
<path d="M0 0 C0.66 0 1.32 0 2 0 C0.2653843 4.9278855 -2.35619901 9.27064575 -5 13.75 C-5.45117188 14.52988281 -5.90234375 15.30976563 -6.3671875 16.11328125 C-6.80289063 16.85449219 -7.23859375 17.59570312 -7.6875 18.359375 C-8.08324219 19.03452148 -8.47898437 19.70966797 -8.88671875 20.40527344 C-10 22 -10 22 -12 23 C-12 21.68 -12 20.36 -12 19 C-11.34 19 -10.68 19 -10 19 C-9.67 16.36 -9.34 13.72 -9 11 C-8.01 10.67 -7.02 10.34 -6 10 C-5.67 9.01 -5.34 8.02 -5 7 C-4.34 7 -3.68 7 -3 7 C-2.67 5.68 -2.34 4.36 -2 3 C-1.34 3 -0.68 3 0 3 C0 2.01 0 1.02 0 0 Z " fill="#3EC5B0" transform="translate(77,161)"/>
<path d="M0 0 C2.64 0 5.28 0 8 0 C6.51081373 4.12666074 4.19156996 5.2973363 0.375 7.25 C-0.62789062 7.77078125 -1.63078125 8.2915625 -2.6640625 8.828125 C-3.43492187 9.21484375 -4.20578125 9.6015625 -5 10 C-4.39816251 7.97954558 -3.72693904 5.97888961 -3 4 C-2.34 3.67 -1.68 3.34 -1 3 C-0.67 2.01 -0.34 1.02 0 0 Z " fill="#1FBACA" transform="translate(228,272)"/>
<path d="M0 0 C0.66 1.32 1.32 2.64 2 4 C1.01 5.485 1.01 5.485 0 7 C-0.99 7 -1.98 7 -3 7 C-3.33 8.98 -3.66 10.96 -4 13 C-4.66 13 -5.32 13 -6 13 C-6.66 14.65 -7.32 16.3 -8 18 C-8.66 18 -9.32 18 -10 18 C-10.33 19.32 -10.66 20.64 -11 22 C-11.66 22 -12.32 22 -13 22 C-11.29816715 16.88424944 -8.32246469 12.64984185 -5.375 8.1875 C-4.859375 7.39923828 -4.34375 6.61097656 -3.8125 5.79882812 C-2.54558583 3.8632648 -1.27467036 1.93046058 0 0 Z " fill="#3FC3B4" transform="translate(101,156)"/>
<path d="M0 0 C0.33 0.99 0.66 1.98 1 3 C1.99 3 2.98 3 4 3 C4 3.66 4 4.32 4 5 C3.360625 5.12375 2.72125 5.2475 2.0625 5.375 C1.381875 5.58125 0.70125 5.7875 0 6 C-0.33 6.66 -0.66 7.32 -1 8 C-1.66 8 -2.32 8 -3 8 C-2.896875 8.7425 -2.79375 9.485 -2.6875 10.25 C-3 13 -3 13 -5.5 15.3125 C-6.7375 16.1478125 -6.7375 16.1478125 -8 17 C-8.66 16.67 -9.32 16.34 -10 16 C-6.7 10.72 -3.4 5.44 0 0 Z " fill="#3CC4BD" transform="translate(176,155)"/>
<path d="M0 0 C0.33 1.32 0.66 2.64 1 4 C0.01 4.33 -0.98 4.66 -2 5 C-2.33 6.155 -2.66 7.31 -3 8.5 C-3.33 9.655 -3.66 10.81 -4 12 C-4.99 12.33 -5.98 12.66 -7 13 C-7.12375 13.94875 -7.2475 14.8975 -7.375 15.875 C-8 19 -8 19 -10 21 C-10.66 21 -11.32 21 -12 21 C-10.36530185 16.39068718 -7.97080462 12.40413934 -5.4375 8.25 C-5.02564453 7.56550781 -4.61378906 6.88101563 -4.18945312 6.17578125 C-1.14773261 1.14773261 -1.14773261 1.14773261 0 0 Z " fill="#D7FAFB" transform="translate(128,83)"/>
<path d="M0 0 C-0.66 1.32 -1.32 2.64 -2 4 C-3.98 4 -5.96 4 -8 4 C-8 4.66 -8 5.32 -8 6 C-7.34 6.33 -6.68 6.66 -6 7 C-7 8 -7 8 -10.375 8.1875 C-14 8 -14 8 -17 6 C-14.5433053 4.99580363 -12.08481647 3.99649499 -9.625 3 C-8.92632812 2.71382812 -8.22765625 2.42765625 -7.5078125 2.1328125 C-2.2265625 0 -2.2265625 0 0 0 Z " fill="#27BEAD" transform="translate(100,8)"/>
<path d="M0 0 C0.66 0.33 1.32 0.66 2 1 C1.34 2.32 0.68 3.64 0 5 C-0.66 5 -1.32 5 -2 5 C-2 5.66 -2 6.32 -2 7 C-3.609375 8.7265625 -3.609375 8.7265625 -5.75 10.625 C-6.44609375 11.25664063 -7.1421875 11.88828125 -7.859375 12.5390625 C-10 14 -10 14 -14 14 C-11.03750349 9.92656729 -7.61640648 6.79433834 -3.8046875 3.55078125 C-1.92288746 1.97318991 -1.92288746 1.97318991 0 0 Z " fill="#2CC8AB" transform="translate(56,31)"/>
<path d="M0 0 C0.66 0.33 1.32 0.66 2 1 C2 1.99 2 2.98 2 4 C1.34 4 0.68 4 0 4 C-0.2475 5.093125 -0.495 6.18625 -0.75 7.3125 C-2.02002851 11.05908409 -2.65756352 12.10595266 -6 14 C-6.66 13.67 -7.32 13.34 -8 13 C-5.36 8.71 -2.72 4.42 0 0 Z " fill="#43C7B3" transform="translate(74,199)"/>
<path d="M0 0 C0.66 0.33 1.32 0.66 2 1 C0.625 3.5 0.625 3.5 -2 6 C-5.37080851 6.44908891 -8.61884349 6.29036649 -12 6 C-12.66 4.35 -13.32 2.7 -14 1 C-13.34 1 -12.68 1 -12 1 C-12 1.99 -12 2.98 -12 4 C-8.7 4 -5.4 4 -2 4 C-2 3.01 -2 2.02 -2 1 C-1.34 0.67 -0.68 0.34 0 0 Z " fill="#CDFBFB" transform="translate(141,209)"/>
<path d="M0 0 C0.86625 0.37125 0.86625 0.37125 1.75 0.75 C0.28563715 5.38714903 0.28563715 5.38714903 -2.1875 7.0625 C-4.25 7.75 -4.25 7.75 -7.25 7.75 C-6.66524269 3.65669884 -4.62230386 -0.51358932 0 0 Z " fill="#15BDD3" transform="translate(287.25,208.25)"/>
<path d="M0 0 C-1.04399746 1.34786992 -2.11102066 2.67792729 -3.1875 4 C-3.77917969 4.7425 -4.37085938 5.485 -4.98046875 6.25 C-7 8 -7 8 -9.73828125 8.25 C-10.48464844 8.1675 -11.23101562 8.085 -12 8 C-11 6 -11 6 -8 5 C-7.67 3.35 -7.34 1.7 -7 0 C-3.98968256 -0.93423645 -3.13349732 -1.04449911 0 0 Z " fill="#21B8CA" transform="translate(263,250)"/>
<path d="M0 0 C0.66 0 1.32 0 2 0 C0.54997977 4.10839064 -1.3979134 7.50344613 -4 11 C-4.66 11 -5.32 11 -6 11 C-6 9.02 -6 7.04 -6 5 C-4.35 4.67 -2.7 4.34 -1 4 C-0.67 2.68 -0.34 1.36 0 0 Z " fill="#39BFC3" transform="translate(150,164)"/>
<path d="M0 0 C1.76462683 3.08809695 2 4.23312136 2 8 C1.360625 8.103125 0.72125 8.20625 0.0625 8.3125 C-0.9584375 8.6528125 -0.9584375 8.6528125 -2 9 C-2.33 9.99 -2.66 10.98 -3 12 C-3.99 12 -4.98 12 -6 12 C-4.43358249 7.69235185 -2.31663844 3.93828536 0 0 Z " fill="#3CC5B8" transform="translate(108,144)"/>
<path d="M0 0 C0.33 0 0.66 0 1 0 C1 3.63 1 7.26 1 11 C0.34 10.01 -0.32 9.02 -1 8 C-1.99 8.33 -2.98 8.66 -4 9 C-4.33 9.99 -4.66 10.98 -5 12 C-5.66 11.67 -6.32 11.34 -7 11 C-5.85845641 9.16399255 -4.71165684 7.33125195 -3.5625 5.5 C-2.92441406 4.4790625 -2.28632812 3.458125 -1.62890625 2.40625 C-0.82259766 1.21515625 -0.82259766 1.21515625 0 0 Z " fill="#46C3B9" transform="translate(125,117)"/>
<path d="M0 0 C0.66 0.33 1.32 0.66 2 1 C-1.3 6.28 -4.6 11.56 -8 17 C-9 14 -9 14 -8 11 C-7.34 11 -6.68 11 -6 11 C-5.7525 10.113125 -5.505 9.22625 -5.25 8.3125 C-3.96065232 4.89572865 -2.40019871 2.7202252 0 0 Z " fill="#D6FBF9" transform="translate(77,192)"/>
<path d="M0 0 C0.66 0 1.32 0 2 0 C0.35821735 4.77609498 -2.26546702 8.79382904 -5 13 C-6.0546875 11.140625 -6.0546875 11.140625 -7 9 C-6.125 6.75 -6.125 6.75 -5 5 C-4.34 5 -3.68 5 -3 5 C-2.67 4.34 -2.34 3.68 -2 3 C-1.34 3 -0.68 3 0 3 C0 2.01 0 1.02 0 0 Z " fill="#3BC3B5" transform="translate(105,116)"/>
<path d="M0 0 C2.67990269 2.3141221 3.598724 4.24352307 4.5625 7.625 C5.20135682 9.98406223 5.20135682 9.98406223 6 12 C6.66 12.33 7.32 12.66 8 13 C8 14.98 8 16.96 8 19 C5.41589795 15.85512507 3.86214318 12.69294159 2.3125 8.9375 C1.87550781 7.89464844 1.43851563 6.85179687 0.98828125 5.77734375 C0 3 0 3 0 0 Z " fill="#33C7A9" transform="translate(8,199)"/>
<path d="M0 0 C0.33 0 0.66 0 1 0 C1.25 2.25 1.25 2.25 1 5 C-0.2848951 6.38007251 -1.63015802 7.70420353 -3 9 C-4.31765027 11.09773156 -5.54924656 13.22618726 -6.75390625 15.390625 C-7.16511719 15.92171875 -7.57632813 16.4528125 -8 17 C-8.99 17 -9.98 17 -11 17 C-10.62488281 16.443125 -10.24976563 15.88625 -9.86328125 15.3125 C-6.7992985 10.74353832 -3.81911489 6.14629754 -0.98046875 1.43359375 C-0.65691406 0.96050781 -0.33335937 0.48742187 0 0 Z " fill="#D2FAFA" transform="translate(175,127)"/>
<path d="M0 0 C0.66 0.99 1.32 1.98 2 3 C1.375 6.0625 1.375 6.0625 0 9 C-2.0625 10.25 -2.0625 10.25 -4 11 C-4.33 11.66 -4.66 12.32 -5 13 C-5.66 12.67 -6.32 12.34 -7 12 C-4.69 8.04 -2.38 4.08 0 0 Z " fill="#41C2BD" transform="translate(116,131)"/>
<path d="M0 0 C0.66 1.32 1.32 2.64 2 4 C5.63 4 9.26 4 13 4 C12.67 4.99 12.34 5.98 12 7 C10.37536158 7.05395478 8.75021459 7.09277195 7.125 7.125 C6.22007812 7.14820313 5.31515625 7.17140625 4.3828125 7.1953125 C2 7 2 7 0 5 C-0.125 2.375 -0.125 2.375 0 0 Z " fill="#D1FCFD" transform="translate(202,208)"/>
<path d="M0 0 C-1.56641751 4.30764815 -3.68336156 8.06171464 -6 12 C-7.04211409 8.87365774 -6.99926113 7.95151159 -6.25 4.875 C-6.09015625 4.17117187 -5.9303125 3.46734375 -5.765625 2.7421875 C-5.51296875 2.16726562 -5.2603125 1.59234375 -5 1 C-2 0 -2 0 0 0 Z " fill="#46C6B6" transform="translate(65,184)"/>
<path d="M0 0 C0.33 0.66 0.66 1.32 1 2 C1.66 2 2.32 2 3 2 C4 5 4 5 3 8 C2.34 8 1.68 8 1 8 C1 7.34 1 6.68 1 6 C-0.32 5.67 -1.64 5.34 -3 5 C-3 4.01 -3 3.02 -3 2 C-2.01 1.34 -1.02 0.68 0 0 Z " fill="#27CCB1" transform="translate(5,176)"/>
<path d="M0 0 C0.99 0.495 0.99 0.495 2 1 C2 1.99 2 2.98 2 4 C2.99 4 3.98 4 5 4 C5 7.63 5 11.26 5 15 C2.88955618 11.83433427 2.24447923 9.48802585 1.375 5.8125 C1.11460938 4.72582031 0.85421875 3.63914063 0.5859375 2.51953125 C0.39257812 1.68808594 0.19921875 0.85664063 0 0 Z " fill="#2ACAAF" transform="translate(3,184)"/>
<path d="M0 0 C0.33 0 0.66 0 1 0 C1.08333357 4.8333472 0.95261487 9.23692563 0 14 C-0.66 14 -1.32 14 -2 14 C-3.41791045 5.49253731 -3.41791045 5.49253731 -1 2 C-0.67 1.34 -0.34 0.68 0 0 Z " fill="#16BECB" transform="translate(298,168)"/>
<path d="M0 0 C1 3 1 3 -0.125 5.5 C-2.16131229 8.21508305 -4.00479488 9.46192169 -7 11 C-7 7.22089522 -6.00296038 6.53893899 -3.5 3.8125 C-2.8503125 3.09707031 -2.200625 2.38164063 -1.53125 1.64453125 C-1.0259375 1.10183594 -0.520625 0.55914062 0 0 Z " fill="#2DC8AC" transform="translate(40,46)"/>
<path d="M0 0 C1.22589844 0.01353516 1.22589844 0.01353516 2.4765625 0.02734375 C3.41628906 0.04474609 3.41628906 0.04474609 4.375 0.0625 C4.705 1.0525 5.035 2.0425 5.375 3.0625 C4.68792969 3.03929688 4.00085938 3.01609375 3.29296875 2.9921875 C2.39191406 2.97414063 1.49085938 2.95609375 0.5625 2.9375 C-0.33082031 2.91429688 -1.22414062 2.89109375 -2.14453125 2.8671875 C-4.87902714 2.87964173 -4.87902714 2.87964173 -7.625 5.0625 C-7.25 3.125 -7.25 3.125 -6.625 1.0625 C-4.21954362 -0.14022819 -2.67503047 -0.03821472 0 0 Z " fill="#4BC2BE" transform="translate(134.625,78.9375)"/>
<path d="M0 0 C0.33 0.66 0.66 1.32 1 2 C2.32 2 3.64 2 5 2 C5.33 3.65 5.66 5.3 6 7 C5.01 7.33 4.02 7.66 3 8 C0.9375 5.6875 0.9375 5.6875 -1 3 C-0.67 2.01 -0.34 1.02 0 0 Z " fill="#30CCAA" transform="translate(27,234)"/>
<path d="M0 0 C0.99 0 1.98 0 3 0 C1.35821735 4.77609498 -1.26546702 8.79382904 -4 13 C-4.33 11.68 -4.66 10.36 -5 9 C-4.34 9 -3.68 9 -3 9 C-3 8.01 -3 7.02 -3 6 C-2.34 6 -1.68 6 -1 6 C-0.67 4.02 -0.34 2.04 0 0 Z " fill="#DDFCFD" transform="translate(184,137)"/>
<path d="M0 0 C0.99 0.33 1.98 0.66 3 1 C1.02 3.97 -0.96 6.94 -3 10 C-4 7 -4 7 -2.625 3.875 C-1 1 -1 1 0 0 Z " fill="#3BC4B0" transform="translate(83,151)"/>
<path d="M0 0 C0.66 0 1.32 0 2 0 C2 0.66 2 1.32 2 2 C2.8971875 2.2165625 2.8971875 2.2165625 3.8125 2.4375 C5.56150404 2.8872439 7.28677023 3.42892341 9 4 C8.67 4.99 8.34 5.98 8 7 C4.7 5.35 1.4 3.7 -2 2 C-1.34 1.34 -0.68 0.68 0 0 Z " fill="#2BC1AC" transform="translate(78,280)"/>
<path d="M0 0 C0.99 0 1.98 0 3 0 C2.67 2.97 2.34 5.94 2 9 C1.34 9 0.68 9 0 9 C0 6.03 0 3.06 0 0 Z " fill="#12BDC0" transform="translate(288,198)"/>
<path d="M0 0 C1 4 1 4 -0.1875 6.6875 C-2 9 -2 9 -6 10 C-4.02 6.7 -2.04 3.4 0 0 Z " fill="#DCFBFC" transform="translate(192,100)"/>
<path d="M0 0 C0.99 0.33 1.98 0.66 3 1 C2 4 2 4 -1.0625 5.6875 C-2.031875 6.120625 -3.00125 6.55375 -4 7 C-3.39816251 4.97954558 -2.72693904 2.97888961 -2 1 C-1.34 0.67 -0.68 0.34 0 0 Z " fill="#19B7C2" transform="translate(227,275)"/>
<path d="M0 0 C0.66 0.66 1.32 1.32 2 2 C1.34 2 0.68 2 0 2 C0 3.65 0 5.3 0 7 C-0.66 7 -1.32 7 -2 7 C-2 7.66 -2 8.32 -2 9 C-2.99 9.33 -3.98 9.66 -5 10 C-3.84414715 6.08788267 -2.64465038 3.1254959 0 0 Z " fill="#49C3BD" transform="translate(165,173)"/>
<path d="M0 0 C0.33 0.99 0.66 1.98 1 3 C-0.3125 5.1875 -0.3125 5.1875 -2 7 C-2.66 7 -3.32 7 -4 7 C-4 6.34 -4 5.68 -4 5 C-4.66 5 -5.32 5 -6 5 C-6 4.34 -6 3.68 -6 3 C-4.02 2.01 -2.04 1.02 0 0 Z " fill="#29CCB1" transform="translate(78,17)"/>
<path d="M0 0 C0.33 0 0.66 0 1 0 C1.125 2.875 1.125 2.875 1 6 C0.34 6.66 -0.32 7.32 -1 8 C-1.99 8 -2.98 8 -4 8 C-2.87548273 5.0280615 -1.77706209 2.66559313 0 0 Z " fill="#DFFDFD" transform="translate(156,158)"/>
<path d="M0 0 C1.10844919 3.32534757 0.84454356 5.62182575 0 9 C-1.32 8.67 -2.64 8.34 -4 8 C-2.87548273 5.0280615 -1.77706209 2.66559313 0 0 Z " fill="#DBFAFB" transform="translate(180,119)"/>
<path d="M0 0 C4.455 0.99 4.455 0.99 9 2 C7.625 4 7.625 4 6 6 C5.34 6 4.68 6 4 6 C4 4.68 4 3.36 4 2 C2.68 2 1.36 2 0 2 C0 1.34 0 0.68 0 0 Z " fill="#1DBFD3" transform="translate(236,30)"/>
<path d="M0 0 C0.33 0.99 0.66 1.98 1 3 C1.99 3 2.98 3 4 3 C4 3.66 4 4.32 4 5 C3.360625 5.12375 2.72125 5.2475 2.0625 5.375 C1.0415625 5.684375 1.0415625 5.684375 0 6 C-0.33 6.66 -0.66 7.32 -1 8 C-1.66 7.67 -2.32 7.34 -3 7 C-2.01 4.69 -1.02 2.38 0 0 Z " fill="#2EC1B9" transform="translate(176,155)"/>
<path d="M0 0 C0.66 0.33 1.32 0.66 2 1 C1.19185349 2.33597652 0.37836819 3.668725 -0.4375 5 C-0.88996094 5.7425 -1.34242187 6.485 -1.80859375 7.25 C-2.20175781 7.8275 -2.59492187 8.405 -3 9 C-3.33 9 -3.66 9 -4 9 C-4.25 6.1875 -4.25 6.1875 -4 3 C-2 1.125 -2 1.125 0 0 Z " fill="#3DC5B7" transform="translate(97,130)"/>
<path d="M0 0 C0.66 0 1.32 0 2 0 C2 0.66 2 1.32 2 2 C3.32 1.34 4.64 0.68 6 0 C6.33 0.99 6.66 1.98 7 3 C6 4 6 4 2.9375 4.0625 C1.4834375 4.0315625 1.4834375 4.0315625 0 4 C0 2.68 0 1.36 0 0 Z " fill="#1CC0CC" transform="translate(196,288)"/>
<path d="M0 0 C0.66 0.99 1.32 1.98 2 3 C1.01 4.485 1.01 4.485 0 6 C-0.66 6 -1.32 6 -2 6 C-2.33 7.32 -2.66 8.64 -3 10 C-3.66 10 -4.32 10 -5 10 C-3.66511872 6.40608886 -2.03977277 3.24509304 0 0 Z " fill="#4BCBB7" transform="translate(93,168)"/>
<path d="M0 0 C1 2 1 2 0.25 4.4375 C-0.93098981 6.85852911 -1.9831559 8.25818009 -4 10 C-4.66 9.67 -5.32 9.34 -6 9 C-4.02 6.03 -2.04 3.06 0 0 Z " fill="#D0F9F6" transform="translate(85,152)"/>
<path d="M0 0 C0.66 0.66 1.32 1.32 2 2 C0.35 4.64 -1.3 7.28 -3 10 C-3.33 8.68 -3.66 7.36 -4 6 C-3.34 5.01 -2.68 4.02 -2 3 C-1.34 3 -0.68 3 0 3 C0 2.01 0 1.02 0 0 Z " fill="#3CC2AB" transform="translate(91,138)"/>
<path d="M0 0 C0.33 0 0.66 0 1 0 C1.3125 2.8125 1.3125 2.8125 1 6 C-1.5 7.875 -1.5 7.875 -4 9 C-3.35499066 5.51694958 -1.95865224 2.93797836 0 0 Z " fill="#2DCFAC" transform="translate(24,66)"/>
<path d="M0 0 C2.3431213 0.25561323 4.67843403 0.59270772 7 1 C7.33 1.66 7.66 2.32 8 3 C3.545 3.495 3.545 3.495 -1 4 C-0.67 2.68 -0.34 1.36 0 0 Z " fill="#23C9CD" transform="translate(168,296)"/>
<path d="M0 0 C2.375 0.3125 2.375 0.3125 5 1 C5.66 1.99 6.32 2.98 7 4 C6.67 4.99 6.34 5.98 6 7 C4.02 4.69 2.04 2.38 0 0 Z " fill="#2BC9AD" transform="translate(49,261)"/>
<path d="M0 0 C1.32 0.99 2.64 1.98 4 3 C3.01 3 2.02 3 1 3 C1 3.99 1 4.98 1 6 C0.34 6 -0.32 6 -1 6 C-1 5.34 -1 4.68 -1 4 C-1.66 4 -2.32 4 -3 4 C-3 3.34 -3 2.68 -3 2 C-2.01 1.34 -1.02 0.68 0 0 Z " fill="#15C0C8" transform="translate(243,34)"/>
<path d="M0 0 C0.99 0 1.98 0 3 0 C2.6875 2.375 2.6875 2.375 2 5 C1.01 5.66 0.02 6.32 -1 7 C-0.67 4.69 -0.34 2.38 0 0 Z " fill="#1DBEC9" transform="translate(266,240)"/>
<path d="M0 0 C1.04187157 3.12561472 1.23843794 4.04680182 0 7 C-2.0625 8.25 -2.0625 8.25 -4 9 C-2.25 2.25 -2.25 2.25 0 0 Z " fill="#2BC3AA" transform="translate(84,185)"/>
<path d="M0 0 C0.66 0.33 1.32 0.66 2 1 C-0.475 4.465 -0.475 4.465 -3 8 C-3.33 6.68 -3.66 5.36 -4 4 C-3.01 3.67 -2.02 3.34 -1 3 C-0.67 2.01 -0.34 1.02 0 0 Z " fill="#46BFB4" transform="translate(168,136)"/>
<path d="M0 0 C1.32 0.33 2.64 0.66 4 1 C4 1.99 4 2.98 4 4 C2.02 4.33 0.04 4.66 -2 5 C-1.34 4.67 -0.68 4.34 0 4 C0 2.68 0 1.36 0 0 Z " fill="#12C6B9" transform="translate(192,288)"/>
<path d="M0 0 C1 2 1 2 0.0625 5.125 C-0.288125 6.07375 -0.63875 7.0225 -1 8 C-1.99 8 -2.98 8 -4 8 C-2.87548273 5.0280615 -1.77706209 2.66559313 0 0 Z " fill="#CFFAFA" transform="translate(185,111)"/>
<path d="M0 0 C0.66 0 1.32 0 2 0 C0.8141763 3.37503669 -0.27573689 5.64722731 -3 8 C-2.67 6.02 -2.34 4.04 -2 2 C-1.34 2 -0.68 2 0 2 C0 1.34 0 0.68 0 0 Z " fill="#40C4B3" transform="translate(115,100)"/>
</svg>
